<?xml version="1.0" encoding="UTF-8"?>
<svg xmlns="http://www.w3.org/2000/svg" version="1.1" viewBox="0 0 448 512">
  <!-- Generator: Adobe Illustrator 30.0.0, SVG Export Plug-In . SVG Version: 2.1.1 Build 123)  -->
  <defs>
    <style>
      .st0 {
        fill: #e70000;
      }
    </style>
  </defs>
  <g id="_圖層_1" data-name="圖層_1" focusable="false">
    <g>
      <path class="st0" d="M16,141.97h416c8.8,0,16-3.45,16-7.66v-19.15c0-4.21-7.2-7.66-16-7.66H16c-8.8,0-16,3.45-16,7.66v19.15c0,4.21,7.2,7.66,16,7.66Z"/>
      <path class="st0" d="M16,273.24h416c8.8,0,16-3.45,16-7.66v-19.15c0-4.21-7.2-7.66-16-7.66H16c-8.8,0-16,3.45-16,7.66v19.15c0,4.21,7.2,7.66,16,7.66Z"/>
      <path class="st0" d="M16,404.5h416c8.8,0,16-3.45,16-7.66v-19.15c0-4.21-7.2-7.66-16-7.66H16c-8.8,0-16,3.45-16,7.66v19.15c0,4.21,7.2,7.66,16,7.66Z"/>
    </g>
  </g>
</svg>