<?xml version="1.0" encoding="UTF-8"?>
<svg id="_圖層_1" xmlns="http://www.w3.org/2000/svg" version="1.1" viewBox="0 0 640 640">
  <!-- Generator: Adobe Illustrator 30.0.0, SVG Export Plug-In . SVG Version: 2.1.1 Build 123)  -->
  <defs>
    <style>
      .st0 {
        fill: #52b33e;
      }
    </style>
  </defs>
  <path class="st0" d="M371.2,266.2h-13c-2.1,0-3.7,1.6-3.7,3.7v48.2l-37.3-50.3c-.6-1-1.9-1.6-3-1.6h-12.9c-2.1,0-3.7,1.6-3.7,3.7v81.3c0,2.1,1.6,3.7,3.7,3.7h13c2.1,0,3.7-1.6,3.7-3.7v-48.2l37.3,50.3c.6.8,1.7,1.5,3,1.5h13c2.1,0,3.7-1.6,3.7-3.7v-81.4c0-1.9-1.7-3.6-3.8-3.5Z"/>
  <path class="st0" d="M281.3,266.1h-13c-2.1,0-3.7,1.6-3.7,3.7v81.3c0,2.1,1.6,3.7,3.7,3.7h13c2.1,0,3.7-1.6,3.7-3.7v-81.3c0-1.9-1.6-3.7-3.7-3.7Z"/>
  <path class="st0" d="M249.8,334.2h-35.5v-64.4c0-2.1-1.6-3.7-3.7-3.7h-13c-2.1,0-3.7,1.6-3.7,3.7v81.3c0,1,.3,1.8,1,2.5.7.6,1.5,1,2.5,1h52.2c2.1,0,3.7-1.6,3.7-3.7v-13c0-1.9-1.6-3.7-3.5-3.7Z"/>
  <path class="st0" d="M443.5,266.1h-52.2c-1.9,0-3.7,1.6-3.7,3.7v81.3c0,1.9,1.6,3.7,3.7,3.7h52.2c2.1,0,3.7-1.6,3.7-3.7v-13.1c0-2.1-1.6-3.7-3.7-3.7h-35.5v-13.6h35.5c2.1,0,3.7-1.6,3.7-3.7v-13.1c0-2.1-1.6-3.7-3.7-3.7h-35.5v-13.7h35.5c2.1,0,3.7-1.6,3.7-3.7v-13c-.1-1.9-1.7-3.7-3.7-3.7Z"/>
  <polygon class="st0" points="443.6 266.1 443.5 266.1 443.5 266.1 443.6 266.1 443.6 266.1"/>
  <path class="st0" d="M320,51.63c-148.22,0-268.37,120.15-268.37,268.37s120.15,268.37,268.37,268.37,268.37-120.15,268.37-268.37S468.22,51.63,320,51.63ZM505.6,306.7c0,33.3-12.9,63.4-39.9,93.1-39.2,45-126.6,99.9-146.5,108.2-19.9,8.3-16.9-5.4-16.1-10.1,4.9-29.4,7.4-37.4-14.4-42.1-89.6-11.9-155.9-74.6-155.9-149.3,0-83.4,83.7-151.3,186.4-151.3s186.4,67.9,186.4,151.3v.2Z"/>
</svg>